<?xml version="1.0" encoding="iso-8859-1"?>
<!-- Generator: Adobe Illustrator 19.0.0, SVG Export Plug-In . SVG Version: 6.00 Build 0)  -->
<svg version="1.1" id="Layer_1" xmlns="http://www.w3.org/2000/svg" xmlns:xlink="http://www.w3.org/1999/xlink" x="0px" y="0px"
	 viewBox="0 0 512 512" style="enable-background:new 0 0 512 512;" xml:space="preserve">
<circle style="fill:#C92F00;" cx="256" cy="256" r="256"/>
<path style="fill:#930000;" d="M511.15,276.856L336.351,102.055L194.655,262.459l-42.375-42.375l-41.837,41.837l54.458,56.646
	l37.074,37.074l-6.072,2.667l-66.439-67.132l-7.99,16.708l-0.991-0.991l-10.511,11.678l38.428,35.209l-6.577,13.583l143.015,143.015
	C405.825,496.809,501.307,398.932,511.15,276.856z"/>
<g>
	<path style="fill:#FFFFFF;" d="M106.905,300.373c4.179-5.872,22.559-9.197,22.559-9.197s2.879,18.456-1.298,24.328
		c-4.179,5.872-12.324,7.244-18.196,3.065C104.1,314.39,102.726,306.243,106.905,300.373z"/>
	<path style="fill:#FFFFFF;" d="M161.835,300.372c4.179-5.872,22.559-9.197,22.559-9.197s2.879,18.456-1.298,24.328
		c-4.179,5.872-12.324,7.244-18.196,3.065C159.029,314.389,157.656,306.243,161.835,300.372z"/>
	<path style="fill:#FFFFFF;" d="M135.535,349.163c4.179-5.872,22.559-9.197,22.559-9.197s2.879,18.456-1.298,24.328
		c-4.179,5.872-12.324,7.244-18.196,3.065C132.73,363.182,131.358,355.035,135.535,349.163z"/>
	<path style="fill:#FFFFFF;" d="M216.766,300.37c4.179-5.872,22.559-9.197,22.559-9.197s2.879,18.456-1.298,24.328
		c-4.177,5.872-12.324,7.244-18.196,3.065C213.959,314.389,212.587,306.241,216.766,300.37z"/>
	<path style="fill:#FFFFFF;" d="M185.634,349.163c4.179-5.872,22.559-9.197,22.559-9.197s2.879,18.456-1.298,24.328
		c-4.179,5.872-12.324,7.244-18.196,3.065C182.827,363.18,181.455,355.033,185.634,349.163z"/>
	<path style="fill:#FFFFFF;" d="M235.73,349.162c4.179-5.872,22.559-9.197,22.559-9.197s2.879,18.456-1.298,24.328
		c-4.179,5.872-12.324,7.244-18.196,3.065C232.926,363.179,231.553,355.033,235.73,349.162z"/>
</g>
<polygon style="fill:#FFC61B;" points="383.524,203.18 329.814,303.257 369.876,313.384 256,426.667 309.71,326.589 269.65,316.463 
	"/>
<path style="fill:#D0D1D3;" d="M360.584,281.733c28.881,0,52.291-23.412,52.291-52.291s-23.412-52.291-52.291-52.291
	c-0.317,0-0.631,0.019-0.948,0.024c0.614-4.279,0.948-8.649,0.948-13.097c0-50.54-40.97-91.51-91.51-91.51
	c-31.253,0-58.832,15.677-75.342,39.586c-6.616-3.025-13.965-4.725-21.716-4.725c-28.881,0-52.291,23.412-52.291,52.291
	c0,8.74,2.155,16.972,5.947,24.214c-15.846,8.985-26.546,25.991-26.546,45.509c0,28.881,23.412,52.291,52.291,52.291h209.167
	V281.733z"/>
<path style="fill:#A6A8AA;" d="M360.584,177.149c-0.319,0-0.631,0.019-0.948,0.024c0.614-4.279,0.948-8.649,0.948-13.097
	c0-50.54-40.97-91.51-91.51-91.51c-4.642,0-9.19,0.386-13.646,1.053v208.113h105.158c28.879,0,52.291-23.412,52.291-52.291
	C412.875,200.561,389.463,177.149,360.584,177.149z"/>
<g>
</g>
<g>
</g>
<g>
</g>
<g>
</g>
<g>
</g>
<g>
</g>
<g>
</g>
<g>
</g>
<g>
</g>
<g>
</g>
<g>
</g>
<g>
</g>
<g>
</g>
<g>
</g>
<g>
</g>
</svg>
